# xmcd CD database file
#
# Track frame offsets:
#	150
#	13547
#	25137
#	36559
#	49074
#	61654
#	73258
#	85016
#	97154
#	110060
#	122209
#	134581
#	147128
#	160484
#	175286
#	186567
#	200125
#	213714
#	225287
#	236805
#
# Disc length: 3322 seconds
#
# Revision: 0
# Processed by: cddbd v1.5.2PL0 Copyright (c) Steve Scherf et al.
# Submitted via: CDex 1.70beta2
#
DISCID=340cf814
DTITLE=Teddy Edwards and James Moody - Bebop Story 1947-48 CD 057
DYEAR=2008
DGENRE=Jazz
TTITLE0=Bird Legs
TTITLE1=Out Of Nowhere
TTITLE2=Roy's Boy
TTITLE3=Steady With Teddy
TTITLE4=Rexology
TTITLE5=Three Bass Hit
TTITLE6=R.B.'s Wig
TTITLE7=Body And Soul
TTITLE8=Teddy's Tune
TTITLE9=Wonderful Work
TTITLE10=Fairy Dance
TTITLE11=It's The Talk Of The Town
TTITLE12=The Fuller Bop Man
TTITLE13=Workshop
TTITLE14=Oh Henry
TTITLE15=Moodamorphosis
TTITLE16=Tropicana
TTITLE17=Cu-Ba
TTITLE18=Moody's All Frantic
TTITLE19=Tin Tin Deo
EXTD=YEAR: 2008
EXTT0=
EXTT1=
EXTT2=
EXTT3=
EXTT4=
EXTT5=
EXTT6=
EXTT7=
EXTT8=
EXTT9=
EXTT10=
EXTT11=
EXTT12=
EXTT13=
EXTT14=
EXTT15=
EXTT16=
EXTT17=
EXTT18=
EXTT19=
PLAYORDER=
